name analog
datacolumns 19
datarows 35
range 0.5240000000000002 0.5410000000000004
endheader
time	ground_force_vx	ground_force_vy	ground_force_vz	ground_force_px	ground_force_py	ground_force_pz	l_ground_force_vx	l_ground_force_vy	l_ground_force_vz	l_ground_force_px	l_ground_force_py	l_ground_force_pz	ground_torque_x	ground_torque_y	ground_torque_z	l_ground_torque_x	l_ground_torque_y	l_ground_torque_z
0.5240000000000002	-0.0	-0.0	-0.0	2.133523941040039	10.866387367248535	-631.132568359375	-9.758186340332031	-18.273141860961918	-165.80780029296875	-0.0	-0.0	-0.0	-0.0	-0.0	-0.0	57015.57421875	23850.87109375	-6260.8583984375
0.5245000000000003	-0.0	-0.0	-0.0	2.490490674972534	10.777381896972656	-629.9697265625	-9.521652221679688	-18.312057495117188	-164.799560546875	-0.0	-0.0	-0.0	-0.0	-0.0	-0.0	57126.97265625	23779.677734375	-6211.20751953125
0.5250000000000004	-0.0	-0.0	-0.0	2.620826244354248	11.259428024291992	-630.721923828125	-9.472671508789062	-18.52825736999512	-164.56776428222656	-0.0	-0.0	-0.0	-0.0	-0.0	-0.0	57094.71484375	23691.740234375	-6128.96533203125
0.5255000000000003	-0.0	-0.0	-0.0	2.5389461517333984	11.608253479003906	-629.9104614257812	-9.531638145446776	-17.978214263916016	-164.25704956054688	-0.0	-0.0	-0.0	-0.0	-0.0	-0.0	57013.26171875	23772.482421875	-6086.09130859375
0.5260000000000002	-0.0	-0.0	-0.0	2.792674779891968	11.333513259887695	-629.394287109375	-9.639248847961426	-18.164173126220703	-163.94522094726562	-0.0	-0.0	-0.0	-0.0	-0.0	-0.0	56883.0	23637.75390625	-5984.04833984375
0.5265000000000003	-0.0	-0.0	-0.0	2.758697986602783	11.415513038635254	-631.2686157226562	-8.99951171875	-18.057172775268555	-163.59576416015625	-0.0	-0.0	-0.0	-0.0	-0.0	-0.0	56767.29296875	23743.564453125	-6131.07373046875
0.5270000000000004	-0.0	-0.0	-0.0	2.854736328125	11.86102294921875	-631.5916137695312	-9.599013328552246	-18.09686088562012	-164.06533813476562	-0.0	-0.0	-0.0	-0.0	-0.0	-0.0	56915.4375	23477.84375	-6013.81494140625
0.5275000000000003	-0.0	-0.0	-0.0	2.9111406803131104	11.847787857055664	-630.6157836914062	-9.42519760131836	-18.25186920166016	-162.9829559326172	-0.0	-0.0	-0.0	-0.0	-0.0	-0.0	56939.31640625	23498.984375	-6043.45703125
0.5280000000000002	-0.0	-0.0	-0.0	3.087372303009033	11.758811950683594	-630.2368774414062	-9.265853881835938	-18.203075408935547	-163.944091796875	-0.0	-0.0	-0.0	-0.0	-0.0	-0.0	56901.05859375	23618.3828125	-6003.34912109375
0.5285000000000003	-0.0	-0.0	-0.0	3.259315729141236	11.902037620544434	-632.8984375	-9.540761947631836	-18.33108329772949	-163.64932250976562	-0.0	-0.0	-0.0	-0.0	-0.0	-0.0	56920.98828125	23661.18359375	-6105.9462890625
0.5290000000000004	-0.0	-0.0	-0.0	3.099201440811157	11.895848274230955	-632.405029296875	-9.403343200683594	-18.19426727294922	-163.62811279296875	-0.0	-0.0	-0.0	-0.0	-0.0	-0.0	56887.8046875	23698.771484375	-5970.91650390625
0.5295000000000003	-0.0	-0.0	-0.0	3.2175629138946533	11.872281074523926	-632.5925903320312	-9.240782737731934	-18.404470443725582	-164.29241943359375	-0.0	-0.0	-0.0	-0.0	-0.0	-0.0	56774.453125	23809.369140625	-5998.4130859375
0.5300000000000002	-0.0	-0.0	-0.0	3.259113550186157	12.347488403320312	-631.7693481445312	-9.47675895690918	-18.06591796875	-163.71942138671875	-0.0	-0.0	-0.0	-0.0	-0.0	-0.0	56935.99609375	23833.548828125	-6127.673828125
0.5305000000000003	-0.0	-0.0	-0.0	3.502030849456787	12.138834953308104	-634.04833984375	-9.395194053649902	-18.13793563842773	-164.70333862304688	-0.0	-0.0	-0.0	-0.0	-0.0	-0.0	57072.65625	23753.724609375	-6057.302734375
0.5310000000000004	-0.0	-0.0	-0.0	3.59912109375	12.216422080993652	-634.8299560546875	-9.604784965515137	-17.92133140563965	-163.6248016357422	-0.0	-0.0	-0.0	-0.0	-0.0	-0.0	57149.94921875	23673.140625	-6095.18798828125
0.5315000000000003	-0.0	-0.0	-0.0	3.9927282333374015	12.216296195983888	-633.69091796875	-9.419106483459473	-18.169723510742188	-165.3387908935547	-0.0	-0.0	-0.0	-0.0	-0.0	-0.0	57038.82421875	23599.294921875	-6084.53515625
0.5320000000000003	-0.0	-0.0	-0.0	4.318787574768066	12.792850494384766	-634.4981689453125	-9.499781608581545	-18.41891860961914	-164.95892333984375	-0.0	-0.0	-0.0	-0.0	-0.0	-0.0	57304.90234375	23790.837890625	-6033.234375
0.5325000000000003	-0.0	-0.0	-0.0	4.728157043457031	12.515118598937988	-634.518310546875	-9.507227897644045	-18.249757766723636	-165.3382110595703	-0.0	-0.0	-0.0	-0.0	-0.0	-0.0	57290.3828125	23938.671875	-6133.2158203125
0.5330000000000004	-0.0	-0.0	-0.0	5.132104873657227	12.718568801879885	-634.664306640625	-9.725004196166992	-18.09111213684082	-165.68710327148438	-0.0	-0.0	-0.0	-0.0	-0.0	-0.0	57609.73046875	23941.5546875	-6092.6396484375
0.5335000000000003	-0.0	-0.0	-0.0	5.586240768432617	12.735936164855955	-634.2727661132812	-9.854206085205078	-18.26075935363769	-165.68682861328125	-0.0	-0.0	-0.0	-0.0	-0.0	-0.0	57531.078125	23992.486328125	-6116.16015625
0.5340000000000003	-0.0	-0.0	-0.0	5.751709938049316	12.604854583740234	-636.0958251953125	-9.51126194000244	-18.06536102294922	-167.88536071777344	-0.0	-0.0	-0.0	-0.0	-0.0	-0.0	57909.12890625	23890.875	-6163.037109375
0.5345000000000003	-0.0	-0.0	-0.0	5.934789180755615	12.825624465942385	-634.664306640625	-9.710315704345703	-18.363910675048828	-167.56509399414062	-0.0	-0.0	-0.0	-0.0	-0.0	-0.0	57848.5859375	24018.30078125	-6232.06494140625
0.5350000000000004	-0.0	-0.0	-0.0	5.912521362304688	12.77912425994873	-636.4478149414062	-9.498944282531738	-18.08579635620117	-167.9961700439453	-0.0	-0.0	-0.0	-0.0	-0.0	-0.0	58067.03125	24155.6171875	-6224.8134765625
0.5355000000000003	-0.0	-0.0	-0.0	5.8878936767578125	12.796679496765137	-635.3707275390625	-9.83336353302002	-18.35070037841797	-168.34434509277344	-0.0	-0.0	-0.0	-0.0	-0.0	-0.0	58330.75	24074.564453125	-6259.32861328125
0.5360000000000003	-0.0	-0.0	-0.0	5.798683166503906	12.928064346313477	-634.4794921875	-9.593990325927734	-18.50010108947754	-168.36915588378906	-0.0	-0.0	-0.0	-0.0	-0.0	-0.0	58506.70703125	24172.94921875	-6275.05712890625
0.5365000000000003	-0.0	-0.0	-0.0	5.70947265625	12.401171684265137	-636.093017578125	-9.888016700744627	-18.452789306640625	-168.26560974121094	-0.0	-0.0	-0.0	-0.0	-0.0	-0.0	58473.51953125	24187.9609375	-6300.49560546875
0.5370000000000004	-0.0	-0.0	-0.0	5.806442737579346	12.443382263183594	-635.5242919921875	-9.723332405090332	-18.695802688598636	-168.7275390625	-0.0	-0.0	-0.0	-0.0	-0.0	-0.0	58527.41796875	24178.529296875	-6316.33154296875
0.5375000000000003	-0.0	-0.0	-0.0	5.938108444213867	12.207128524780272	-635.89306640625	-9.811833381652832	-18.446897506713867	-168.66461181640625	-0.0	-0.0	-0.0	-0.0	-0.0	-0.0	58478.1875	24370.947265625	-6302.51171875
0.5380000000000003	-0.0	-0.0	-0.0	5.616647243499756	12.478256225585938	-635.9075927734375	-9.752115249633787	-18.724197387695312	-169.826416015625	-0.0	-0.0	-0.0	-0.0	-0.0	-0.0	58692.35546875	24176.87109375	-6375.64306640625
0.5385000000000003	-0.0	-0.0	-0.0	6.109189987182617	12.171485900878906	-635.5541381835938	-10.089383125305176	-18.50044822692871	-169.85061645507812	-0.0	-0.0	-0.0	-0.0	-0.0	-0.0	58719.5546875	24355.810546875	-6476.65673828125
0.5390000000000004	-0.0	-0.0	-0.0	6.109260559082031	11.989696502685549	-635.3707275390625	-10.154497146606444	-18.506267547607425	-169.61947631835938	-0.0	-0.0	-0.0	-0.0	-0.0	-0.0	58812.08203125	24293.931640625	-6407.419921875
0.5395000000000003	-0.0	-0.0	-0.0	6.330751895904541	12.078764915466309	-634.9922485351562	-9.85254955291748	-18.271333694458008	-168.573486328125	-0.0	-0.0	-0.0	-0.0	-0.0	-0.0	58921.92578125	24252.150390625	-6496.076171875
0.5400000000000003	-0.0	-0.0	-0.0	6.770880222320557	12.216938972473145	-633.6288452148438	-10.107531547546388	-18.635875701904297	-170.385986328125	-0.0	-0.0	-0.0	-0.0	-0.0	-0.0	58827.87890625	24378.482421875	-6510.18505859375
0.5405000000000003	-0.0	-0.0	-0.0	6.434748649597168	11.90035629272461	-633.6277465820312	-10.254132270812988	-18.698705673217773	-170.05792236328125	-0.0	-0.0	-0.0	-0.0	-0.0	-0.0	58927.88671875	24343.056640625	-6583.52294921875
0.5410000000000004	-0.0	-0.0	-0.0	7.090856075286865	11.813913345336914	-632.36328125	-10.20695972442627	-18.500795364379883	-169.3179931640625	-0.0	-0.0	-0.0	-0.0	-0.0	-0.0	59071.5390625	24465.2890625	-6475.22802734375
